<svg xmlns="http://www.w3.org/2000/svg" viewBox="-0.1 -10.1 20.2 10.2" preserveAspectRatio="none">
  <path d="M 0 0 L 10 -10 L 20 0 L 0 0 M 9 -9 L 11 -9 M 10 -8 L 9 -9 M 10 -8 L 11 -9 M 8 -8 L 12 -8 M 7 -7 L 13 -7 M 6 -6 L 14 -6 M 5 -5 L 15 -5 M 4 -4 H 16 M 3 -3 H 17 M 2 -2 H 18 M 8 -8 L 9 -7 M 9 -7 L 9 -7 L 10 -8 L 11 -7 L 12 -8 M 6 -6 L 7 -5 L 8 -6 L 9 -5 L 10 -6 L 11 -5 L 12 -6 L 13 -5 L 14 -6 L 14 -6 M 7 -7 L 8 -6 L 9 -7 L 10 -6 L 11 -7 L 12 -6 L 13 -7 L 13 -7 M 4 -4 L 5 -3 L 6 -4 L 7 -3 L 8 -4 L 9 -3 L 10 -4 L 11 -3 L 12 -4 L 13 -3 L 14 -4 L 15 -3 L 16 -4 L 16 -4 M 5 -5 L 6 -4 L 7 -5 L 8 -4 L 9 -5 L 10 -4 L 11 -5 L 12 -4 L 13 -5 L 14 -4 L 15 -5 M 3 -3 L 4 -2 L 5 -3 L 6 -2 L 7 -3 L 8 -2 L 9 -3 L 10 -2 L 11 -3 L 12 -2 L 13 -3 L 14 -2 L 15 -3 L 16 -2 L 17 -3 L 17 -3 M 1 -1 H 19 M 2 -2 L 3 -1 L 4 -2 L 5 -1 L 6 -2 L 7 -1 L 8 -2 L 9 -1 L 10 -2 L 11 -1 L 12 -2 L 13 -1 L 14 -2 L 15 -1 L 16 -2 L 17 -1 L 18 -2 L 18 -2 M 1 -1 L 2 0 L 3 -1 L 4 0 L 5 -1 L 6 0 L 7 -1 L 8 0 L 9 -1 L 10 0 L 11 -1 L 12 0 L 13 -1 L 14 0 L 15 -1 L 16 0 L 17 -1 L 18 0 L 19 -1 L 19 -1" stroke="#000000" stroke-width="0.03" fill="none"/>
</svg>